<svg width="243" height="374" viewBox="0 0 243 374" fill="none" xmlns="http://www.w3.org/2000/svg">
<g filter="url(#filter0_dd_24_1828)">
<path d="M72.5 36.7127C72.5 45.8047 63.5457 53.1753 52.5 53.1753C41.4543 53.1753 32.5 45.8047 32.5 36.7127C32.5 27.6206 41.4543 20.25 52.5 20.25C63.5457 20.25 72.5 27.6206 72.5 36.7127Z" fill="white"/>
</g>
<path d="M52.5 60.25L48.1699 52.75H56.8301L52.5 60.25Z" fill="white"/>
<g clip-path="url(#clip0_24_1828)">
<path d="M61.1958 31.7719V29.1631H59.8915V27.8588H58.5871V26.5544H55.9783V25.25H49.0219V26.5544H46.4131V27.8588H45.1088V29.1631H43.8044V31.7719H42.5V38.7283H43.8044V41.3371H45.1088V42.6415H46.4131V43.9458H49.0219V45.2502H55.9783V43.9458H58.5871V42.6415H59.8915V41.3371H61.1958V38.7283H62.5002V31.7719H61.1958ZM54.674 37.424H50.326V33.076H54.674V37.424Z" fill="#663A00"/>
<path d="M49.0217 30.4688H47.7173V31.7731H49.0217V30.4688Z" fill="#FFA5B5"/>
<path d="M58.5866 31.7734H57.2823V33.0778H58.5866V31.7734Z" fill="#999FED"/>
<path d="M49.8908 40.0352H48.5864V41.3395H49.8908V40.0352Z" fill="#999FED"/>
<path d="M46.4142 34.8164H45.1099V36.1208H46.4142V34.8164Z" fill="#FFEF2A"/>
<path d="M53.8055 28.293H52.5011V29.5973H53.8055V28.293Z" fill="#FFEF2A"/>
<path d="M55.5447 40.0312H54.2403V41.3356H55.5447V40.0312Z" fill="#FFEF2A"/>
<path d="M58.5871 37.4238H57.2827V38.7282H58.5871V37.4238Z" fill="#FFA5B5"/>
<path d="M54.6751 31.7734H50.3271V33.0778H54.6751V31.7734Z" fill="black"/>
<path d="M55.9783 33.0762H54.674V37.4241H55.9783V33.0762Z" fill="black"/>
<path d="M54.674 37.4238H50.326V38.7282H54.674V37.4238Z" fill="black"/>
<path d="M50.3262 33.0762H49.0219V37.4241H50.3262V33.0762Z" fill="black"/>
<path d="M55.9783 25.25H49.0219V26.5544H55.9783V25.25Z" fill="black"/>
<path d="M58.5871 26.5547H55.9783V27.8591H58.5871V26.5547Z" fill="black"/>
<path d="M59.8908 27.8574H58.5864V29.1618H59.8908V27.8574Z" fill="black"/>
<path d="M61.197 29.1602H59.8926V31.7689H61.197V29.1602Z" fill="black"/>
<path d="M62.5007 31.7734H61.1963V38.7299H62.5007V31.7734Z" fill="black"/>
<path d="M49.0219 26.5547H46.4131V27.8591H49.0219V26.5547Z" fill="black"/>
<path d="M46.4142 27.8574H45.1099V29.1618H46.4142V27.8574Z" fill="black"/>
<path d="M45.1081 29.1602H43.8037V31.7689H45.1081V29.1602Z" fill="black"/>
<path d="M43.8044 31.7734H42.5V38.7299H43.8044V31.7734Z" fill="black"/>
<path d="M45.1081 38.7266H43.8037V41.3353H45.1081V38.7266Z" fill="black"/>
<path d="M46.4142 41.3398H45.1099V42.6442H46.4142V41.3398Z" fill="black"/>
<path d="M49.0219 42.6406H46.4131V43.945H49.0219V42.6406Z" fill="black"/>
<path d="M55.9783 43.9453H49.0219V45.2497H55.9783V43.9453Z" fill="black"/>
<path d="M58.5871 42.6406H55.9783V43.945H58.5871V42.6406Z" fill="black"/>
<path d="M59.8908 41.3398H58.5864V42.6442H59.8908V41.3398Z" fill="black"/>
<path d="M61.197 38.7266H59.8926V41.3353H61.197V38.7266Z" fill="black"/>
</g>
<defs>
<filter id="filter0_dd_24_1828" x="-137.5" y="0.25" width="380" height="372.926" filterUnits="userSpaceOnUse" color-interpolation-filters="sRGB">
<feFlood flood-opacity="0" result="BackgroundImageFix"/>
<feColorMatrix in="SourceAlpha" type="matrix" values="0 0 0 0 0 0 0 0 0 0 0 0 0 0 0 0 0 0 127 0" result="hardAlpha"/>
<feOffset dy="150"/>
<feGaussianBlur stdDeviation="85"/>
<feColorMatrix type="matrix" values="0 0 0 0 0 0 0 0 0 0 0 0 0 0 0 0 0 0 0.2 0"/>
<feBlend mode="normal" in2="BackgroundImageFix" result="effect1_dropShadow_24_1828"/>
<feColorMatrix in="SourceAlpha" type="matrix" values="0 0 0 0 0 0 0 0 0 0 0 0 0 0 0 0 0 0 127 0" result="hardAlpha"/>
<feOffset dy="20"/>
<feGaussianBlur stdDeviation="10"/>
<feComposite in2="hardAlpha" operator="out"/>
<feColorMatrix type="matrix" values="0 0 0 0 0 0 0 0 0 0 0 0 0 0 0 0 0 0 0.25 0"/>
<feBlend mode="normal" in2="effect1_dropShadow_24_1828" result="effect2_dropShadow_24_1828"/>
<feBlend mode="normal" in="SourceGraphic" in2="effect2_dropShadow_24_1828" result="shape"/>
</filter>
<clipPath id="clip0_24_1828">
<rect width="20" height="20" fill="white" transform="translate(42.5 25.25)"/>
</clipPath>
</defs>
</svg>
